<svg xmlns="http://www.w3.org/2000/svg" version="1.1" xmlns:xlink="http://www.w3.org/1999/xlink" xmlns:svgjs="http://svgjs.dev/svgjs" viewBox="0 0 800 800"><defs><linearGradient x1="50%" y1="0%" x2="50%" y2="100%" id="ccchaos-grad"><stop stop-color="hsl(206, 75%, 49%)" stop-opacity="1" offset="0%"></stop><stop stop-color="hsl(331, 90%, 56%)" stop-opacity="1" offset="100%"></stop></linearGradient></defs><g stroke-width="6" stroke="url(#ccchaos-grad)" fill="none" stroke-linecap="round"><path d="M381.94 124.45C380.93 109.54 398.97 106.44 413.06 119.18Q422.11 127.5 431.17 136.12 440.07 145.05 448.63 154.28 456.7 163.8 464.12 173.58 470.77 183.6 476.54 193.84 481.36 204.25 485.19 214.79 488 225.41 489.83 236.07 490.73 246.72 490.8 257.3 490.14 267.75 488.92 278.04 487.29 288.1 485.44 297.88 483.56 307.36 481.87 316.49 480.15 333.36 480.59 348.96 485.93 362.44 494.65 374.7 501 380.19 508.41 385.38 516.79 390.31 526 395.05 535.88 399.64 546.22 404.16 556.84 408.68 567.49 413.27 577.97 417.98 588.04 422.91 597.49 428.1 606.14 433.63 613.8 439.55 620.35 445.91 629.08 460.39 633.96 476.5 634.23 485.53 633.41 495.12 631.64 505.25 629.1 515.89 626.02 527 622.62 538.53 619.15 550.41 615.85 562.59 612.99 574.99 610.79 587.53 609.48 600.12 609.25 612.68 610.24 625.12 612.59 637.35 616.35 649.29 621.56 660.85 628.19 671.97 636.16 682.57C649.76 696.81 653.38 707.16 640.71 696.42Q625.1 677.86 609.48 658.63 593.86 644.42 578.24 639.44 562.62 645.15 547.01 659.87 531.39 679.25 515.77 697.55 500.15 709.36 484.53 711.2 468.92 702.51 453.3 685.88 437.68 666.21 422.06 649.32 406.44 640.2 390.83 641.56 375.21 652.98 359.59 671.1 343.97 690.55 328.36 705.59 312.74 711.76 297.12 707.25 281.5 693.38 265.89 674.26 250.27 655.55 234.65 642.76 219.03 639.69 203.42 647.24 187.8 663.18 172.18 682.8 156.56 700.29 140.95 710.49C128.28 711.23 117.64 693.83 121.46 684.33Q124.34 676.92 127.46 668.85 130.87 660.12 134.6 650.76 138.69 640.81 143.13 630.31 147.94 619.32 153.1 607.9 158.59 596.13 164.36 584.09 170.37 571.85 176.54 559.5 182.82 547.12 189.11 534.8 195.35 522.61 201.44 510.63 207.31 498.94 212.88 487.59 218.09 476.65 222.87 466.15 227.19 456.14 231.02 446.65 236.93 429.51 241.43 413.95 244.12 400.83 246.19 388.94 250.48 371.33 255.15 359.34 261.98 349.49 270.7 339.07 276.18 333.4 282.25 327.4 288.87 321.04 295.95 314.3 303.41 307.16 311.12 299.62 318.97 291.67 326.83 283.33 334.56 274.62 342.04 265.55 349.14 256.15 355.73 246.47 361.73 236.55 367.04 226.42 371.61 216.14 375.4 205.75 378.4 195.31 380.63 184.86 382.13 174.45 382.97 164.12 383.25 153.93 383.08 143.89 382.27 129.25 381.94 124.45" stroke-dasharray="0 9" transform="rotate(0, 400, 400)" opacity="0.38"></path><path d="M394.8 143.9C394.02 130.11 411.19 127.07 424.38 138.74Q439.98 154.23 453.75 170.81 464.9 188.43 472.88 206.98 477.53 226.26 479.05 246 478.04 265.89 475.37 285.6 472.17 304.78 469.64 323.1 468.96 340.29 471.11 356.13 476.79 370.48 486.27 383.3 499.44 394.67 515.72 404.75 534.16 413.8 553.55 422.19 572.5 430.31 589.69 438.62 603.92 447.56 614.32 457.56 620.46 469 622.36 482.16 620.55 497.23 616 514.26 610.03 533.2 604.13 553.84 599.84 575.87 598.54 598.84 601.3 622.27 608.74 645.59C617.07 662 616.46 666.44 605.06 652.11Q591.02 635.23 576.97 623.2 562.93 619.06 548.88 623.87 534.84 636.39 520.8 653.48 506.75 670.8 492.71 683.98 478.66 689.68 464.62 686.47 450.57 675.15 436.53 658.59 422.49 640.97 408.44 626.75 394.4 619.53 380.35 621.13 366.31 631.14 352.26 647.04 338.22 664.81 324.17 679.94 310.13 688.62 296.09 688.65 282.04 680.03 268 664.92 253.95 647.16 239.91 631.24 225.86 621.17 211.82 619.51 197.77 626.68 183.73 640.86 169.68 658.47 155.64 675.05C144.24 684.83 135.2 675.5 139.37 662.17Q146.14 642.08 154.19 620.51 163.54 597.95 174.06 574.92 185.44 551.97 197.26 529.6 208.99 508.29 220.12 488.39 230.12 470.19 238.62 453.84 245.38 439.35 250.37 426.62 253.76 415.45 255.94 405.53 257.47 396.49 259.01 387.91 261.25 379.36 264.83 370.43 270.29 360.75 277.93 350.01 287.83 338 299.8 324.6 313.4 309.76 327.95 293.57 342.65 276.17 356.66 257.81 369.15 238.75 379.47 219.31 387.18 199.82 392.14 180.58 394.52 161.87 394.8 143.9 394.8 143.9 394.8 143.9" stroke-dasharray="28 6" transform="rotate(11.416666666666666, 400, 400)" opacity="0.79"></path><path d="M405.77 163.31C406.55 150.66 422.75 147.71 433.52 158.32Q445.3 172.36 454.77 187.36 461.59 203.31 465.68 220.11 467.22 237.64 466.63 255.7 464.58 274.08 461.88 292.5 459.44 310.71 458.16 328.41 458.86 345.36 462.18 361.33 468.53 376.14 478.03 389.67 490.49 401.87 505.44 412.77 522.13 422.47 539.66 431.14 556.99 439.02 573.08 446.42 587.01 453.65 598.02 461.09 605.62 469.09 609.66 477.99 610.32 488.08 608.11 499.62 603.83 512.77 598.52 527.61 593.32 544.15 589.39 562.26 587.8 581.76 589.4 602.35C592.86 617.66 587.49 620.89 577.21 609.85Q564.53 600.92 551.85 598.86 539.17 604.14 526.49 615.61 513.81 630.84 501.13 646.57 488.45 659.46 475.77 666.75 463.09 666.89 450.41 659.85 437.74 647.13 425.06 631.44 412.38 616.14 399.7 604.47 387.02 598.93 374.34 600.7 361.66 609.41 348.98 623.19 336.3 639.11 323.62 653.77 310.94 664.05 298.27 667.75 285.59 664.09 272.91 653.85 260.23 639.21 247.55 623.29 234.87 609.49 222.19 600.74 209.51 598.92 196.83 604.41 184.16 616.04 171.48 631.34C161.19 644.19 154.12 640.08 158.99 625.07Q166.76 603.81 175.67 582.49 185.58 561.52 196.23 541.3 207.27 522.15 218.29 504.34 228.84 488.04 238.53 473.35 246.99 460.28 253.99 448.72 259.42 438.52 263.34 429.43 267.34 413.5 269.93 398.05 271.72 389.79 274.64 380.76 279.1 370.75 285.42 359.6 293.72 347.22 303.91 333.59 315.75 318.77 328.8 302.88 342.47 286.1 356.12 268.63 369.06 250.73 380.65 232.65 390.37 214.65 397.86 196.96 404.37 171.55 405.77 163.31" stroke-dasharray="17 1" transform="rotate(22.833333333333332, 400, 400)" opacity="0.69"></path><path d="M412.74 182.7C415.78 171.19 430.79 168.37 438.31 177.92Q445.83 190.52 451.17 203.96 454.31 218.22 455.46 233.25 454.95 248.98 453.27 265.27 451.03 281.97 448.9 298.88 447.53 315.81 447.56 332.54 449.52 348.85 453.78 364.54 460.57 379.43 469.89 393.38 481.54 406.27 495.14 418.03 510.13 428.66 525.84 438.2 541.5 446.73 556.36 454.41 569.7 461.42 580.89 467.99 593.81 481.07 598.33 495.25 596.28 503.65 592.58 513.16 587.99 523.94 583.35 536.11 579.53 549.73 577.34 564.78C577.18 576.45 567.87 582.32 558.51 578.67Q546.99 579.54 535.47 586.16 523.95 597.34 512.43 611.11 500.91 625.04 489.39 636.67 477.87 643.94 466.35 645.56 454.83 641.25 443.3 631.77 431.78 618.8 420.26 604.63 408.74 591.76 397.22 582.47 385.7 578.4 374.18 580.27 362.66 587.75 351.14 599.52 339.61 613.49 328.09 627.21 316.57 638.23 305.05 644.62 293.53 645.25 282.01 640 270.49 629.8 258.96 616.45 247.44 602.32 235.92 589.9 224.4 581.39 212.88 578.29 201.36 581.15 189.84 589.46C180.49 599.23 175.44 596.08 181.04 582.33Q189.65 563.81 199.05 546.2 209.03 529.7 219.28 514.46 229.49 500.58 239.31 488.07 248.4 476.91 256.49 466.99 263.37 458.16 268.92 450.22 275.55 436.16 279.16 422.53 281.12 407.16 284.56 389.5 288.13 379 293.22 367.44 299.97 354.81 308.41 341.17 318.4 326.62 329.69 311.29 341.89 295.35 354.56 278.99 367.16 262.4 379.18 245.79 390.12 229.35 399.54 213.26 409.94 190.19 412.74 182.7" stroke-dasharray="26 15" transform="rotate(34.25, 400, 400)" opacity="0.48"></path><path d="M414.48 202.07C419.69 191.7 433.29 189.04 437.5 197.55Q441.17 208.73 443.17 220.61 443.7 233.2 443.03 246.47 441.55 260.36 439.7 274.81 437.95 289.7 436.77 304.91 436.63 320.29 437.92 335.7 440.94 350.97 445.9 365.94 452.88 380.45 461.84 394.35 472.58 407.53 484.82 419.87 498.15 431.31 512.07 441.81 526.06 451.35 539.56 459.97 552.05 467.74 563.05 474.76 578.01 486.95 586.25 498.34 584.32 510.38 578.3 524.04 574.23 532.27 570.49 541.52C568.35 548.86 556.76 558.69 548.23 562.38Q537.71 570.59 527.19 581.69 516.66 594.11 506.14 606.05 495.62 615.8 485.1 621.96 474.58 623.65 464.06 620.62 453.53 613.31 443.01 602.77 432.49 590.51 421.97 578.29 411.45 567.87 400.93 560.75 390.41 557.93 379.89 559.84 369.36 566.2 358.84 576.08 348.32 588.09 337.8 600.48 327.28 611.48 316.76 619.52 306.24 623.43 295.72 622.65 285.19 617.31 274.67 608.16 264.15 596.52 253.63 584.05 243.11 572.56 232.59 563.69 222.07 558.71 211.55 558.34C203.01 561.48 199.68 555.92 205.74 545.63Q214.67 532.26 223.97 520.03 233.4 508.95 242.71 498.97 251.64 490.04 259.93 482.04 273.27 468.44 283.35 456.13 288.16 444.03 290.66 430.94 291.2 423.41 291.83 415.12 292.86 405.99 294.62 395.98 297.37 385.07 301.34 373.29 306.67 360.68 313.42 347.33 321.55 333.35 330.93 318.86 341.35 304 352.51 288.94 364.08 273.81 375.65 258.77 386.84 243.96 397.26 229.51 410.52 208.79 414.48 202.07" stroke-dasharray="4 20" transform="rotate(45.666666666666664, 400, 400)" opacity="0.79"></path><path d="M410.81 221.42C417.51 212.22 429.52 209.74 431.05 217.2Q431.91 226.98 431.77 237.34 430.88 248.28 429.53 259.79 428.02 271.85 426.69 284.42 425.86 297.42 425.84 310.78 426.91 324.41 429.28 338.21 433.12 352.06 438.5 365.86 445.44 379.47 453.87 392.79 463.63 405.7 474.49 418.1 486.18 429.9 498.37 441.03 510.67 451.42 522.73 461.05 534.15 469.91 544.61 477.99 553.79 485.34 561.44 492.01 572.38 511.03 572.08 523.45 569.23 528.49 565.88 533.87C563.37 538.04 551.48 550.45 543.7 558.15Q534.11 568.76 524.51 579.46 514.92 589.05 505.32 596.42 495.73 600.74 486.13 601.53 476.54 598.68 466.94 592.52 457.35 583.76 447.75 573.39 438.16 562.59 428.56 552.58 418.97 544.51 409.37 539.3 399.78 537.53 390.18 539.41 380.58 544.73 370.99 552.87 361.39 562.92 351.8 573.73 342.2 584.06 332.61 592.76 323.01 598.82 313.42 601.56 303.82 600.66 294.23 596.23 284.63 588.78 275.04 579.14 265.44 568.42 255.85 557.83 246.25 548.58 236.65 541.73C228.87 538.47 226.65 529.55 232.69 523.15Q241.23 515 249.74 507.64 258.03 500.97 265.92 494.9 279.4 484.07 290.4 473.78 296.84 463 300.8 451.13 302.01 436.48 302.8 419.78 303.53 410.15 304.81 399.8 306.85 388.77 309.83 377.1 313.86 364.87 319.04 352.15 325.37 339.06 332.82 325.69 341.28 312.15 350.59 298.55 360.55 285.01 370.91 271.62 381.41 258.5 391.74 245.71 406.22 227.37 410.81 221.42" stroke-dasharray="13 26" transform="rotate(57.083333333333336, 400, 400)" opacity="0.53"></path><path d="M402.77 240.75C409.91 232.71 420.22 230.45 420.09 236.89Q419.44 245.3 418.43 254.17 417.26 263.5 416.14 273.29 415.29 283.53 414.91 294.21 415.2 305.28 416.34 316.7 418.46 328.43 421.66 340.4 426.02 352.53 431.55 364.76 438.22 377.01 445.96 389.2 454.66 401.24 464.15 413.05 474.24 424.55 484.73 435.68 495.36 446.37 505.9 456.55 516.09 466.19 525.69 475.24 534.5 483.69 542.3 491.52 553.7 505.1 561.17 517.01 562.32 526.7 560.32 535.49C558.67 538.45 548.2 550.65 541.18 558.01Q523.87 572.99 506.56 579.57 489.25 575.52 471.94 562.2 454.63 544.17 437.32 527.59 420.01 518.12 402.7 518.99 385.39 529.9 368.08 547.14 350.77 564.81 333.46 576.87 316.15 579.22 298.84 571.04 281.53 555.13 264.22 536.93C257.2 530.34 255.4 519.44 260.85 515.82Q275.16 506.65 288.22 497.91 298.23 488.92 306.07 479.23 310.34 467.61 312.8 454.5 313.42 438.57 313.8 420.93 314.26 411.14 315.13 400.85 316.57 390.11 318.68 378.98 321.59 367.53 325.37 355.81 330.04 343.92 335.64 331.92 342.11 319.9 349.4 307.92 357.4 296.07 365.99 284.4 375.01 272.99 384.27 261.88 398.18 245.94 402.77 240.75" stroke-dasharray="11 7" transform="rotate(68.5, 400, 400)" opacity="0.52"></path><path d="M392.29 260.07C398.8 253.2 407.39 251.17 406.72 256.61Q405 271.11 404.08 287 404.95 304.29 408.42 322.9 415.04 342.64 425 363.23 438.11 384.32 453.79 405.52 471.16 426.41 489.11 446.56 506.44 465.6 521.96 483.18 534.69 499.07 543.91 513.12 549.31 525.33 551.02 535.8C550.82 539.18 542.87 548.69 536.68 552.65Q521.42 557.55 506.16 554.79 490.9 545.05 475.65 530.79 460.39 515.63 445.13 503.4 429.87 497.18 414.61 498.56 399.35 507.18 384.09 520.86 368.83 536.15 353.57 549.17 338.31 556.64 323.06 556.67 307.8 549.25 292.54 536.25C286.35 530.11 284.38 519.75 288.74 517.14Q299.82 509.55 309.02 501.11 316.03 491.44 320.78 480.25 323.48 467.36 324.58 452.72 324.76 436.37 324.81 418.49 325.6 399.33 327.93 379.23 332.46 358.57 339.6 337.74 349.49 317.15 361.94 297.15 376.46 278.05 392.29 260.07 392.29 260.07 392.29 260.07" stroke-dasharray="5 24" transform="rotate(79.91666666666667, 400, 400)" opacity="0.07"></path><path d="M381.83 279.38C386.93 273.68 393.88 271.91 393.52 276.38Q393.26 288.17 394.33 300.96 397.19 314.77 402.15 329.58 409.37 345.32 418.82 361.86 430.29 379.05 443.41 396.68 457.66 414.53 472.41 432.35 486.99 449.89 500.7 466.89 512.91 483.12 523.11 498.38 530.9 512.5 536.1 525.36C537.34 529.66 532.21 535.52 526.95 535.46Q513.98 531.68 501.01 523.36 488.04 511.96 475.07 499.52 462.1 488.21 449.13 480.06 436.16 476.48 423.19 478.12 410.22 484.69 397.25 495.03 384.28 507.3 371.31 519.34 358.34 529.03 345.37 534.64 332.4 535.19 319.43 530.57C314.17 527.39 311.75 519.61 314.75 516.69Q322.08 507.83 327.81 497.78 331.91 486.49 334.49 473.94 335.79 460.17 336.14 445.3 336 429.48 335.85 412.88 336.21 395.74 337.57 378.27 340.35 360.74 344.87 343.36 351.32 326.35 359.74 309.92 370 294.23 381.83 279.38 381.83 279.38 381.83 279.38" stroke-dasharray="2 10" transform="rotate(91.33333333333333, 400, 400)" opacity="0.89"></path><path d="M373.9 298.69C377.24 294.14 382.66 292.68 383.03 296.2Q384.71 305.39 387.6 315.23 391.84 325.75 397.49 336.94 404.55 348.79 412.94 361.27 422.5 374.32 433.02 387.86 444.23 401.8 455.83 416.03 467.47 430.43 478.81 444.88 489.51 459.23 499.25 473.35 507.78 487.12 514.87 500.4C517.04 505.05 514.35 507.93 510.11 505.36Q499.66 497.5 489.2 488.19 478.75 478.49 468.3 469.52 457.84 462.28 447.39 457.6 436.94 456.01 426.49 457.7 416.03 462.47 405.58 469.78 395.13 478.79 384.67 488.49 374.22 497.77 363.77 505.58 353.31 511.02 342.86 513.47C338.61 513.54 335.8 508.96 337.49 505.43Q341.43 495.09 344.32 483.97 346.21 472.11 347.25 459.59 347.6 446.51 347.49 432.97 347.17 419.09 346.9 404.99 346.95 390.81 347.6 376.67 349.06 362.68 351.55 348.98 355.22 335.64 360.16 322.77 370.15 304.56 373.9 298.69" stroke-dasharray="27 22" transform="rotate(102.75, 400, 400)" opacity="0.62"></path><path d="M370.43 318C372.16 314.61 376.17 313.47 377.21 316.06Q384.22 329.84 394.32 345.14 407.31 362.03 422.62 380.43 439.41 400.18 456.62 421.01 473.14 442.57 487.87 464.44C490.27 468.38 489.24 469.73 486.08 466.89Q470.5 452.96 454.91 441.72 439.33 436.01 423.75 437.27 408.16 445.19 392.58 457.77 376.99 471.82 361.41 483.79C358.25 485.67 355.43 483.53 356.1 480.03Q358.52 459.9 359.14 438.9 358.66 417.47 357.97 396.03 358 375.03 359.64 354.83 363.63 335.75 370.43 318 370.43 318 370.43 318" stroke-dasharray="13 13" transform="rotate(114.16666666666667, 400, 400)" opacity="0.51"></path><path d="M372.47 337.32C373.06 335.07 375.73 334.28 376.99 335.98Q384.08 344.82 392.42 354.33 401.86 364.56 412.19 375.52 423.16 387.2 434.45 399.57 445.75 412.57 456.74 426.13C458.66 428.63 458.45 429.6 456.38 427.98Q446.18 421.16 435.99 416.75 425.79 415.25 415.6 416.84 405.4 421.34 395.21 428.23 385.01 436.73 374.82 445.88C372.74 447.73 370.46 446.81 370.56 444.19Q370.69 429.72 370.31 415.34 369.67 401.18 369.06 387.37 368.78 373.99 369.09 361.15 371.36 343.12 372.47 337.32" stroke-dasharray="0 19" transform="rotate(125.58333333333333, 400, 400)" opacity="0.29"></path></g></svg>